<?xml version="1.0" encoding="utf-8"?>
<!-- Generator: Adobe Illustrator 16.0.0, SVG Export Plug-In . SVG Version: 6.00 Build 0)  -->
<!DOCTYPE svg PUBLIC "-//W3C//DTD SVG 1.1//EN" "http://www.w3.org/Graphics/SVG/1.1/DTD/svg11.dtd">
<svg version="1.1" id="Layer_1" xmlns="http://www.w3.org/2000/svg" xmlns:xlink="http://www.w3.org/1999/xlink" x="0px" y="0px"
	 width="175px" height="50px" viewBox="10.5 -1.5 175 50" enable-background="new 10.5 -1.5 175 50" xml:space="preserve">
<g>
	<g>
		<path fill="#d1d1d1" d="M36.609-1.5C25.194-1.5,10.5,7.704,10.5,13.946c0,1.829,2.334,4.161,2.586,4.161
			c0.063,0,0.063,0,0.063-0.063c1.009-2.774,8.892-14.438,24.153-14.438c6.307,0,10.847,3.783,10.847,10.781
			c0,11.601-8.703,14.186-11.666,14.186c-0.693,0-1.388-0.063-2.081-0.063c-0.947,0-1.64,0.127-1.83,0.819
			c0.19,0,2.082,1.136,5.172,1.136c8.955,0,14.379-9.079,14.379-16.959C52.123,4.11,45.375-1.5,36.609-1.5z"/>
		<path fill="#d1d1d1" d="M31.753,27.563c0-4.477,2.207-15.068,2.207-15.761c0-4.603-3.973-4.728-6.243-4.728
			c0.757,1.26,0.884,3.467,0.884,4.917c0,5.233-0.82,9.646-0.82,15.131c0,2.396,1.576,5.674,4.288,5.674
			c0.568,0,0.82-0.127,0.82-0.441c0-0.252-0.252-0.441-0.442-0.694C31.753,30.211,31.753,28.319,31.753,27.563z"/>
		<path fill="#d1d1d1" d="M55.97,8.271c-1.767,0-3.217,1.324-3.217,2.9c0,1.577,1.45,2.9,3.217,2.9c1.829,0,3.279-1.323,3.279-2.9
			C59.249,9.595,57.799,8.271,55.97,8.271z"/>
		<path fill="#d1d1d1" d="M54.771,14.45c-0.694,0-1.198,0.063-1.64,0.063c0.567,0.693,0.631,2.143,0.631,2.837
			c0,4.098-0.252,7.439-0.252,9.96c0,1.703,0.504,2.837,2.585,2.837c1.198,0,1.324,0,1.514-0.188
			c-0.253-0.189-0.631-0.126-0.631-1.702c0-1.513,0.315-4.539,1.514-10.844C58.492,14.828,56.537,14.45,54.771,14.45z"/>
		<path fill="#d1d1d1" d="M72.807,5.561c-0.756,0-1.514,0.189-2.08,0.378l-0.947,0.315c0.695,1.072,1.072,2.332,1.072,3.845
			c0,11.222-3.404,17.085-4.478,17.085c-1.828,0-0.945-12.419-3.909-12.419c-1.388,0-3.91,0.756-3.91,0.819
			c3.279,4.287,2.081,14.626,7.631,14.626s9.585-17.778,9.585-21.75C75.582,6.002,74.068,5.561,72.807,5.561z"/>
		<path fill="#d1d1d1" d="M110.393,19.872c-1.01-0.756-1.828-0.945-3.784-2.458c0.442-0.693,1.072-1.072,0.758-2.837
			c-0.441-1.198-1.514-1.639-2.523-1.639c-2.018,0-2.964,1.639-2.774,3.404c0,0.252,0.127,2.71,2.964,4.413
			c-6.162,1.974-4.828,9.165,1.196,9.412c-3.794,2.687-7.471-1.566-10.972-5.188c5.234-2.018,6.055-4.414,6.055-6.809
			c0-2.458-1.325-3.404-3.595-3.404c-1.451,0-2.964,0.378-4.415,1.071c0-0.189,0.063-0.315,0.063-0.378s0-0.063,0.063-0.126
			c0-2.521-2.08-2.9-3.783-2.9c-0.694,0-1.324,0.063-1.64,0.063c0.983,1.393,0.795,6.112,0.49,9.921
			c-0.065,0.075-0.11,0.188-0.11,0.355c0,1.198-2.081,4.287-5.551,4.287c-0.314,0-2.27,0.063-2.774-1.639
			c5.928,0,7.567-4.287,7.567-6.116c0-3.782-2.144-5.106-5.675-5.106c-4.226,0-7.253,3.72-7.253,8.574
			c0,4.035,2.207,6.494,6.243,6.494c3.132,0,5.882-0.696,7.225-3.237c-0.043,0.444-0.078,0.818-0.099,1.094
			c0,1.702,1.513,2.837,2.585,2.837c0.567,0,0.946,0,1.135-0.063c0.189-0.063,0.315-0.063,0.379-0.126
			c-0.883-0.504-0.693-3.656,0.063-3.782c3.279,3.53,6.244,13.051,14.315,8.511c1.419-1.173,1.206-3.408,0.716-4.353
			c3.146-0.318,6.223-1.77,6.223-4.979C113.483,24.348,113.379,21.969,110.393,19.872z M79.113,22.142
			c0-3.531,1.01-4.981,2.46-4.981c1.009,0,1.577,1.009,1.577,2.207c0,2.269-2.271,3.089-3.974,3.593
			C79.177,22.709,79.113,22.457,79.113,22.142z M92.229,23.528c0.694-3.593,1.641-5.232,3.405-5.232c0.947,0,1.641,0.126,1.641,1.45
			c0,2.081-3.469,4.35-4.604,4.35C92.356,24.096,92.229,23.907,92.229,23.528z M104.717,14.891c0-0.125,0.126-0.189,0.442-0.189
			c1.196,0,0.756,1.261,0.567,1.954C105.222,16.089,104.906,15.459,104.717,14.891z M106.104,27.941
			c-0.756,0-2.334-0.945-2.144-2.648c0-0.631,0.567-1.891,4.225-2.395C109.825,25.167,109.005,28.257,106.104,27.941z"/>
		<path fill="#d1d1d1" d="M138.706,34.813c0-6.935,0.254-10.466,0.569-21.751c0.692,0,1.387-0.125,2.081-0.314
			c0.756-0.189,1.197-0.694,1.45-1.387c0.189-0.378,0.313-0.819,0.378-1.261c-1.198,0.442-2.333,0.504-3.593,0.504
			c0.502-4.539,0.502-6.619,1.449-6.619c1.703,0,0.945,4.161,0.188,4.917c-0.503,0.567-0.819,0.441-0.819,0.504l0.063,0.063
			c0.441,0.441,0.946,0.504,1.389,0.504h0.313c0.569-0.063,1.072-0.252,1.515-0.504c0.758-0.441,1.576-1.198,1.576-2.458
			c0-4.035-4.982-6.998-8.387-6.998c-0.997,0-1.953,0.318-2.309,1.354c-1.472-0.859-3.124-1.354-4.515-1.354
			c-1.262,0-2.461,0.504-2.461,2.333c0,2.963,0.315,5.674,0.315,8.448c-3.469,0.315-4.099-0.126-4.099,1.576
			c0,0.693,0,1.135,0.567,1.135c0.946,0,2.523-0.189,3.469-0.252c0.075,3.203,0.153,6.396,0.215,9.386
			c-0.006,0.041-0.012,0.083-0.012,0.133c0,1.198-2.081,4.287-5.55,4.287c-0.316,0-2.271,0.063-2.775-1.639
			c5.929,0,7.567-4.287,7.567-6.116c0-3.782-2.142-5.106-5.676-5.106c-4.226,0-7.252,3.72-7.252,8.574
			c0,4.035,2.208,6.494,6.244,6.494c3.375,0,6.306-0.808,7.51-3.863c0.064,3.364,0.108,6.355,0.108,8.655
			c0,2.458,1.448,5.862,4.035,5.862c0.441,0,0.692-0.126,0.692-0.378s-0.251-0.504-0.44-0.693c-0.567-1.45-0.63-3.216-0.63-4.035
			c0-6.855,0.245-10.389,0.557-21.371c0.781-0.061,1.632-0.15,2.23-0.19c0.189,8.006,0.379,15.95,0.379,20.805
			c0,2.458,1.45,5.862,4.036,5.862c0.44,0,0.691-0.126,0.691-0.378s-0.251-0.504-0.44-0.693
			C138.771,37.398,138.706,35.633,138.706,34.813z M118.78,22.142c0-3.531,1.008-4.981,2.458-4.981c1.011,0,1.578,1.009,1.578,2.207
			c0,2.269-2.271,3.089-3.974,3.593C118.843,22.709,118.78,22.457,118.78,22.142z M134.725,9.959
			c0.004,0.179,0.004,0.358,0.006,0.538c-0.637,0.086-1.283,0.107-1.965,0.107c0.505-4.539,0.505-6.619,1.45-6.619
			c0.087,0,0.163,0.013,0.236,0.032c0.052,1.531,0.155,3.009,0.223,4.479"/>
		<path fill="#d1d1d1" d="M185.058,2.661l-0.376-1.324c-1.829,3.341-9.083,4.539-12.109,4.854c-0.506-4.54-5.928-3.972-7.632-3.972
			c1.326,0.945,1.577,3.215,1.577,4.476c-3.595,0-7.063,1.639-7.063,3.09c0,1.198,1.009,1.891,0.946,1.891
			c1.513-2.018,4.098-1.639,6.116-1.639c0.518,6.429,0.291,11.446,0.387,14.747c-1.233,1.553-2.951,2.59-6.377,2.59
			c-0.82,0-3.217-1.009-3.217-4.539c0-1.513,1.072-6.43,2.964-6.43c0.442,0.188,0.694,0.504,0.694,1.071
			c0,0.441-0.127,1.009-0.127,1.324c0,0.504,1.135,1.072,2.334,1.072c1.323,0,2.396-0.567,2.396-2.333
			c0-2.71-2.646-3.908-5.486-3.908c-4.288,0-7.379,4.414-7.379,9.205c0,0.373,0.027,0.736,0.077,1.087
			c-0.74,1.378-2.566,3.137-5.184,3.137c-0.315,0-2.271,0.063-2.774-1.639c5.928,0,7.567-4.287,7.567-6.116
			c0-3.782-2.145-5.106-5.677-5.106c-4.225,0-7.251,3.72-7.251,8.574c0,4.035,2.207,6.494,6.241,6.494
			c3.349,0,6.259-0.794,7.481-3.786c0.993,2.574,3.414,4.227,6.203,4.227h0.57c4.119-0.233,5.807-1.615,7.048-3.162
			c0.199,1.962,0.704,2.916,1.968,2.722c4.353,0,6.497-5.358,6.497-5.548c-0.188-0.063-0.379-0.126-0.505-0.063
			c-0.819,0.503-2.334,2.71-3.721,2.71c-0.442,0-0.378-0.441-0.378-0.504c0-2.396,0.945-11.286,1.449-16.014
			c8.955-0.315,9.523-0.693,9.901-0.883c1.828-0.504,3.279-1.702,3.279-3.656C185.5,4.363,185.249,3.417,185.058,2.661z
			 M143.88,22.142c0-3.531,1.008-4.981,2.458-4.981c1.009,0,1.576,1.009,1.576,2.207c0,2.269-2.271,3.089-3.972,3.593
			C143.942,22.709,143.88,22.457,143.88,22.142z"/>
	</g>
	<g>
		<g>
			<path fill="#d1d1d1" d="M34.397,42.104c0,0.71-0.112,1.328-0.335,1.854c-0.224,0.525-0.536,0.964-0.939,1.315
				c-0.401,0.35-0.883,0.613-1.44,0.788c-0.558,0.176-1.172,0.263-1.842,0.263c-0.335,0-0.686-0.018-1.052-0.053
				c-0.367-0.036-0.69-0.091-0.969-0.162v-7.985c0.278-0.079,0.602-0.138,0.969-0.173c0.366-0.036,0.717-0.055,1.052-0.055
				c0.67,0,1.284,0.088,1.842,0.264c0.558,0.175,1.039,0.438,1.44,0.789c0.403,0.351,0.716,0.789,0.939,1.314
				C34.285,40.789,34.397,41.402,34.397,42.104z M28.634,45.535c0.048,0.008,0.169,0.023,0.364,0.048
				c0.195,0.023,0.508,0.035,0.938,0.035c0.598,0,1.121-0.081,1.566-0.244c0.446-0.164,0.821-0.396,1.124-0.7
				c0.304-0.303,0.53-0.671,0.682-1.105s0.228-0.923,0.228-1.465c0-0.541-0.076-1.027-0.228-1.459
				c-0.151-0.43-0.378-0.796-0.682-1.099c-0.303-0.304-0.678-0.536-1.124-0.699c-0.445-0.163-0.969-0.245-1.566-0.245
				c-0.431,0-0.743,0.012-0.938,0.035s-0.316,0.04-0.364,0.048V45.535z"/>
			<path fill="#d1d1d1" d="M37.124,38.207c0,0.184-0.057,0.328-0.168,0.436c-0.112,0.108-0.247,0.161-0.406,0.161
				s-0.295-0.053-0.407-0.161c-0.111-0.107-0.167-0.252-0.167-0.436s0.056-0.329,0.167-0.437c0.112-0.107,0.248-0.161,0.407-0.161
				s0.294,0.054,0.406,0.161C37.067,37.878,37.124,38.023,37.124,38.207z M36.944,46.252h-0.777v-6.181h0.777V46.252z"/>
			<path fill="#d1d1d1" d="M43.031,45.535c-0.048,0.039-0.119,0.085-0.215,0.137c-0.097,0.052-0.214,0.106-0.354,0.162
				c-0.139,0.056-0.299,0.102-0.479,0.138c-0.179,0.035-0.381,0.054-0.604,0.054c-0.358,0-0.705-0.056-1.04-0.167
				c-0.335-0.112-0.628-0.288-0.879-0.527c-0.251-0.238-0.453-0.547-0.604-0.926s-0.228-0.839-0.228-1.381
				c0-0.438,0.068-0.845,0.204-1.219c0.135-0.375,0.329-0.699,0.58-0.975s0.558-0.49,0.92-0.646
				c0.363-0.155,0.771-0.233,1.227-0.233c0.574,0,1.034,0.038,1.381,0.113s0.632,0.149,0.855,0.221v5.644
				c0,0.925-0.24,1.583-0.718,1.979c-0.479,0.395-1.2,0.592-2.165,0.592c-0.397,0-0.759-0.03-1.082-0.091
				c-0.322-0.059-0.6-0.128-0.831-0.208l0.156-0.706c0.19,0.088,0.452,0.163,0.783,0.228c0.33,0.063,0.663,0.096,0.998,0.096
				c0.733,0,1.266-0.142,1.597-0.425c0.33-0.282,0.496-0.767,0.496-1.452V45.535z M43.02,40.824
				c-0.137-0.039-0.312-0.077-0.526-0.113s-0.522-0.054-0.921-0.054c-0.335,0-0.632,0.059-0.891,0.174
				c-0.26,0.115-0.48,0.279-0.664,0.49s-0.322,0.462-0.418,0.753c-0.097,0.291-0.145,0.612-0.145,0.962
				c0,0.406,0.057,0.756,0.168,1.047c0.111,0.29,0.257,0.527,0.437,0.71c0.179,0.185,0.385,0.317,0.616,0.401
				c0.23,0.084,0.466,0.126,0.705,0.126c0.351,0,0.672-0.053,0.963-0.156c0.291-0.103,0.516-0.223,0.676-0.358V40.824z"/>
			<path fill="#d1d1d1" d="M46.811,38.207c0,0.184-0.057,0.328-0.168,0.436c-0.112,0.108-0.247,0.161-0.407,0.161
				c-0.159,0-0.294-0.053-0.406-0.161c-0.111-0.107-0.167-0.252-0.167-0.436s0.056-0.329,0.167-0.437
				c0.112-0.107,0.247-0.161,0.406-0.161c0.16,0,0.295,0.054,0.407,0.161C46.754,37.878,46.811,38.023,46.811,38.207z
				 M46.631,46.252h-0.777v-6.181h0.777V46.252z"/>
			<path fill="#d1d1d1" d="M49.417,40.071h2.464v0.658h-2.464v3.288c0,0.35,0.03,0.635,0.09,0.854
				c0.06,0.22,0.146,0.389,0.257,0.508c0.111,0.12,0.247,0.2,0.406,0.239c0.16,0.04,0.336,0.061,0.526,0.061
				c0.327,0,0.59-0.038,0.789-0.113c0.2-0.076,0.355-0.146,0.467-0.21l0.191,0.646c-0.112,0.072-0.307,0.154-0.586,0.246
				c-0.279,0.091-0.582,0.137-0.909,0.137c-0.383,0-0.703-0.05-0.963-0.149c-0.259-0.1-0.466-0.252-0.621-0.454
				c-0.155-0.204-0.266-0.456-0.329-0.76c-0.063-0.302-0.096-0.661-0.096-1.075v-5.69l0.777-0.144V40.071z"/>
			<path fill="#d1d1d1" d="M55.192,39.928c0.406,0,0.752,0.059,1.035,0.174c0.282,0.115,0.512,0.275,0.688,0.478
				c0.175,0.204,0.303,0.445,0.383,0.724c0.079,0.279,0.119,0.583,0.119,0.909v3.896c-0.08,0.024-0.195,0.05-0.347,0.078
				s-0.327,0.058-0.526,0.089c-0.199,0.032-0.421,0.059-0.664,0.078s-0.492,0.03-0.747,0.03c-0.326,0-0.628-0.036-0.903-0.108
				c-0.274-0.071-0.514-0.185-0.717-0.34s-0.363-0.354-0.479-0.598c-0.116-0.243-0.174-0.54-0.174-0.891
				c0-0.335,0.064-0.622,0.191-0.861c0.128-0.239,0.308-0.437,0.539-0.591c0.23-0.156,0.506-0.27,0.824-0.341
				c0.319-0.072,0.666-0.108,1.041-0.108c0.111,0,0.229,0.007,0.353,0.018c0.123,0.013,0.243,0.028,0.358,0.048
				c0.116,0.021,0.216,0.041,0.3,0.061c0.083,0.02,0.141,0.038,0.173,0.054v-0.382c0-0.217-0.016-0.425-0.048-0.629
				c-0.032-0.202-0.102-0.387-0.209-0.55s-0.26-0.295-0.455-0.395c-0.195-0.099-0.452-0.148-0.771-0.148
				c-0.455,0-0.794,0.031-1.017,0.096c-0.224,0.063-0.387,0.115-0.49,0.154l-0.107-0.682c0.135-0.063,0.344-0.123,0.627-0.178
				C54.453,39.956,54.795,39.928,55.192,39.928z M55.265,45.69c0.303,0,0.567-0.01,0.795-0.029c0.228-0.021,0.421-0.046,0.58-0.078
				v-2.176c-0.088-0.04-0.228-0.082-0.419-0.126c-0.191-0.043-0.454-0.065-0.789-0.065c-0.191,0-0.391,0.014-0.598,0.042
				c-0.208,0.028-0.399,0.087-0.574,0.18c-0.176,0.092-0.318,0.217-0.431,0.376c-0.111,0.159-0.167,0.371-0.167,0.634
				c0,0.23,0.038,0.426,0.113,0.586c0.076,0.159,0.184,0.287,0.323,0.382c0.139,0.096,0.307,0.166,0.502,0.209
				C54.797,45.668,55.018,45.69,55.265,45.69z"/>
			<path fill="#d1d1d1" d="M60.969,46.36c-0.264-0.009-0.493-0.042-0.688-0.103c-0.195-0.059-0.358-0.15-0.489-0.275
				c-0.132-0.122-0.231-0.282-0.299-0.478c-0.068-0.195-0.102-0.44-0.102-0.734v-7.651l0.777-0.144v7.77
				c0,0.192,0.018,0.346,0.053,0.462c0.036,0.115,0.09,0.206,0.162,0.274c0.071,0.068,0.165,0.117,0.281,0.149
				c0.115,0.032,0.253,0.06,0.412,0.084L60.969,46.36z"/>
			<path fill="#d1d1d1" d="M70.81,46.252c-0.158-0.406-0.303-0.798-0.437-1.173c-0.133-0.376-0.26-0.742-0.38-1.099h-4.049
				c-0.139,0.358-0.273,0.726-0.406,1.101c-0.133,0.376-0.272,0.767-0.42,1.171h-0.85c0.315-0.862,0.612-1.665,0.893-2.41
				c0.279-0.745,0.555-1.45,0.823-2.114c0.27-0.665,0.536-1.304,0.802-1.917c0.265-0.611,0.544-1.227,0.837-1.843h0.717
				c0.292,0.613,0.569,1.227,0.832,1.841s0.528,1.253,0.799,1.918c0.27,0.664,0.544,1.369,0.821,2.115s0.582,1.549,0.915,2.41H70.81
				z M67.958,38.899c-0.3,0.688-0.592,1.387-0.876,2.096c-0.284,0.708-0.578,1.472-0.883,2.293h3.537
				c-0.306-0.822-0.604-1.587-0.894-2.296C68.553,40.282,68.258,39.585,67.958,38.899z"/>
			<path fill="#d1d1d1" d="M76.873,45.535c-0.048,0.039-0.119,0.085-0.216,0.137c-0.095,0.052-0.213,0.106-0.353,0.162
				s-0.299,0.102-0.478,0.138c-0.18,0.035-0.381,0.054-0.604,0.054c-0.358,0-0.706-0.056-1.04-0.167
				c-0.335-0.112-0.628-0.288-0.879-0.527c-0.252-0.238-0.452-0.547-0.604-0.926c-0.151-0.379-0.227-0.839-0.227-1.381
				c0-0.438,0.067-0.845,0.203-1.219c0.136-0.375,0.328-0.699,0.579-0.975c0.252-0.275,0.559-0.49,0.921-0.646
				c0.363-0.155,0.771-0.233,1.227-0.233c0.574,0,1.034,0.038,1.382,0.113c0.346,0.075,0.631,0.149,0.854,0.221v5.644
				c0,0.925-0.239,1.583-0.718,1.979c-0.479,0.395-1.2,0.592-2.164,0.592c-0.399,0-0.76-0.03-1.082-0.091
				c-0.323-0.059-0.601-0.128-0.832-0.208l0.156-0.706c0.19,0.088,0.451,0.163,0.783,0.228c0.331,0.063,0.663,0.096,0.998,0.096
				c0.733,0,1.266-0.142,1.597-0.425c0.33-0.282,0.496-0.767,0.496-1.452V45.535z M76.861,40.824
				c-0.136-0.039-0.312-0.077-0.526-0.113c-0.216-0.036-0.522-0.054-0.92-0.054c-0.336,0-0.633,0.059-0.892,0.174
				c-0.26,0.115-0.48,0.279-0.663,0.49c-0.185,0.211-0.324,0.462-0.42,0.753s-0.144,0.612-0.144,0.962
				c0,0.406,0.056,0.756,0.168,1.047c0.112,0.29,0.258,0.527,0.437,0.71c0.18,0.185,0.385,0.317,0.615,0.401
				c0.231,0.084,0.467,0.126,0.706,0.126c0.351,0,0.672-0.053,0.963-0.156c0.291-0.103,0.516-0.223,0.676-0.358V40.824z"/>
			<path fill="#d1d1d1" d="M79.324,43.156c0-0.543,0.078-1.015,0.233-1.417s0.359-0.739,0.61-1.01
				c0.251-0.271,0.538-0.472,0.86-0.604c0.323-0.132,0.656-0.197,0.999-0.197c0.757,0,1.361,0.248,1.812,0.742
				c0.45,0.493,0.675,1.255,0.675,2.282c0,0.064-0.002,0.128-0.005,0.192c-0.005,0.063-0.011,0.124-0.019,0.179h-4.341
				c0.024,0.757,0.211,1.339,0.563,1.745c0.351,0.406,0.909,0.61,1.674,0.61c0.423,0,0.758-0.04,1.005-0.12s0.426-0.147,0.537-0.203
				l0.145,0.67c-0.112,0.063-0.321,0.14-0.628,0.227c-0.307,0.088-0.668,0.132-1.082,0.132c-0.543,0-1.005-0.08-1.388-0.239
				c-0.383-0.16-0.697-0.382-0.944-0.67c-0.248-0.286-0.427-0.627-0.539-1.021C79.38,44.059,79.324,43.627,79.324,43.156z
				 M83.713,42.666c-0.016-0.646-0.167-1.147-0.454-1.507c-0.287-0.358-0.693-0.537-1.22-0.537c-0.279,0-0.528,0.055-0.747,0.167
				c-0.22,0.111-0.411,0.261-0.574,0.448s-0.291,0.405-0.383,0.651c-0.092,0.247-0.146,0.507-0.161,0.777H83.713z"/>
			<path fill="#d1d1d1" d="M86.248,40.286c0.231-0.063,0.542-0.135,0.933-0.215c0.391-0.079,0.869-0.119,1.436-0.119
				c0.47,0,0.863,0.067,1.178,0.203c0.315,0.136,0.565,0.328,0.754,0.58c0.187,0.25,0.32,0.552,0.4,0.902
				c0.079,0.351,0.119,0.737,0.119,1.16v3.454H90.29v-3.203c0-0.438-0.03-0.81-0.09-1.112s-0.159-0.55-0.299-0.741
				s-0.322-0.329-0.55-0.412c-0.228-0.084-0.513-0.126-0.854-0.126c-0.367,0-0.684,0.02-0.951,0.061
				c-0.268,0.039-0.44,0.076-0.521,0.106v5.428h-0.777V40.286z"/>
			<path fill="#d1d1d1" d="M95.611,46.384c-0.479,0-0.9-0.076-1.267-0.228c-0.367-0.15-0.673-0.368-0.915-0.651
				c-0.243-0.282-0.429-0.621-0.557-1.016c-0.127-0.396-0.19-0.832-0.19-1.31c0-0.486,0.065-0.929,0.196-1.326
				c0.132-0.399,0.321-0.742,0.568-1.029c0.247-0.286,0.546-0.508,0.897-0.663c0.35-0.155,0.744-0.233,1.183-0.233
				c0.335,0,0.648,0.028,0.939,0.085c0.291,0.055,0.516,0.126,0.676,0.215l-0.203,0.669c-0.16-0.079-0.34-0.144-0.538-0.191
				c-0.2-0.048-0.467-0.071-0.802-0.071c-0.686,0-1.206,0.221-1.561,0.663s-0.532,1.07-0.532,1.883c0,0.367,0.04,0.703,0.12,1.01
				c0.079,0.308,0.208,0.57,0.389,0.79c0.18,0.219,0.41,0.391,0.693,0.514c0.282,0.124,0.628,0.186,1.034,0.186
				c0.335,0,0.615-0.038,0.843-0.113c0.228-0.076,0.393-0.142,0.496-0.197l0.168,0.669c-0.144,0.08-0.369,0.157-0.676,0.233
				C96.268,46.346,95.946,46.384,95.611,46.384z"/>
			<path fill="#d1d1d1" d="M100.37,46.384c-0.26-0.487-0.512-0.994-0.756-1.52c-0.243-0.526-0.472-1.058-0.684-1.595
				c-0.212-0.538-0.406-1.075-0.582-1.614c-0.176-0.537-0.327-1.065-0.453-1.584h0.825c0.088,0.383,0.199,0.796,0.334,1.237
				c0.136,0.442,0.289,0.898,0.46,1.369s0.359,0.953,0.566,1.447c0.208,0.495,0.434,0.979,0.679,1.458
				c0.177-0.492,0.335-0.958,0.472-1.396c0.137-0.438,0.263-0.874,0.381-1.308c0.116-0.435,0.229-0.879,0.338-1.332
				c0.109-0.454,0.22-0.946,0.333-1.477h0.778c-0.26,1.157-0.552,2.281-0.876,3.374c-0.323,1.094-0.677,2.093-1.06,2.999
				c-0.152,0.358-0.308,0.667-0.468,0.926c-0.16,0.258-0.338,0.473-0.534,0.64s-0.424,0.291-0.685,0.371
				c-0.26,0.079-0.566,0.119-0.919,0.119c-0.2,0-0.382-0.023-0.546-0.071s-0.267-0.085-0.307-0.108l0.155-0.646
				c0.032,0.024,0.122,0.058,0.27,0.103c0.148,0.043,0.302,0.065,0.462,0.065c0.225,0,0.426-0.024,0.606-0.072
				c0.18-0.048,0.34-0.13,0.484-0.245c0.144-0.115,0.273-0.265,0.39-0.448C100.15,46.894,100.263,46.662,100.37,46.384z"/>
		</g>
	</g>
</g>
</svg>
