<?xml version="1.0" encoding="utf-8"?>
<!-- Generator: Adobe Illustrator 23.0.3, SVG Export Plug-In . SVG Version: 6.00 Build 0)  -->
<svg version="1.1" id="Layer_1" xmlns="http://www.w3.org/2000/svg" xmlns:xlink="http://www.w3.org/1999/xlink" x="0px" y="0px"
	 viewBox="0 0 14 14" style="enable-background:new 0 0 14 14;" xml:space="preserve">
<style type="text/css">
	.st0{fill-rule:evenodd;clip-rule:evenodd;fill:#FFFFFF;}
</style>
<g>
	<g>
		<path class="st0" d="M7.1,0C3.3,0,0.3,3.1,0.3,6.8c0,1.3,0.4,2.5,1,3.5L0,14l3.8-1.2c1,0.5,2.1,0.8,3.3,0.8c3.8,0,6.9-3.1,6.9-6.8
			C14,3.1,10.9,0,7.1,0z M7.1,12.5c-1.2,0-2.2-0.3-3.1-0.9l-2.2,0.7l0.7-2.1C1.8,9.2,1.4,8.1,1.4,6.8c0-3.1,2.6-5.7,5.7-5.7
			c3.2,0,5.7,2.5,5.7,5.7C12.8,10,10.3,12.5,7.1,12.5z M10.3,8.4c-0.2-0.1-1-0.5-1.2-0.6C9,7.7,8.9,7.7,8.8,7.8
			C8.7,8,8.3,8.4,8.2,8.5C8.1,8.6,8,8.6,7.8,8.5C7.6,8.4,7.1,8.2,6.4,7.6C5.9,7.1,5.6,6.5,5.5,6.4C5.4,6.2,5.5,6.1,5.6,6
			c0.1-0.1,0.2-0.2,0.3-0.3C6,5.6,6,5.5,6.1,5.4s0-0.2,0-0.3c0-0.1-0.4-1-0.5-1.3C5.4,3.5,5.3,3.5,5.2,3.5c-0.1,0-0.2,0-0.3,0
			c-0.1,0-0.3,0-0.5,0.2C4.2,3.9,3.7,4.3,3.7,5.1c0,0.9,0.6,1.7,0.6,1.8c0.1,0.1,1.1,2,2.9,2.7C9,10.4,9,10.2,9.3,10.2
			c0.3,0,1.1-0.4,1.2-0.8c0.2-0.4,0.2-0.7,0.1-0.8C10.6,8.5,10.5,8.5,10.3,8.4z"/>
	</g>
</g>
</svg>
